<svg width="1439" height="360" viewBox="0 0 1439 360" fill="none" xmlns="http://www.w3.org/2000/svg">
<g clip-path="url(#clip0_1106_4560)">
<rect width="1439" height="360" fill="white"/>
<g opacity="0.071">
<path d="M-61.1001 641.316L-61.1008 641.316C-121.716 580.7 -121.716 482.424 -61.1008 421.809L220.024 140.684C280.639 80.0689 378.916 80.0689 439.531 140.684L439.532 140.685C500.147 201.3 500.147 299.577 439.532 360.192L158.407 641.316C97.7919 701.932 -0.484862 701.932 -61.1001 641.316Z" fill="#FF744F"/>
<path d="M1002.9 238.316L1002.9 238.316C942.284 177.7 942.284 79.4238 1002.9 18.8086L1284.02 -262.316C1344.64 -322.931 1442.92 -322.931 1503.53 -262.316L1503.53 -262.315C1564.15 -201.7 1564.15 -103.423 1503.53 -42.808L1222.41 238.316C1161.79 298.932 1063.52 298.932 1002.9 238.316Z" fill="#FF744F"/>
</g>
</g>
<defs>
<clipPath id="clip0_1106_4560">
<rect width="1439" height="360" fill="white"/>
</clipPath>
</defs>
</svg>
